# xmcd
#
# Track frame offsets: 
#        150
#        16246
#        31494
#        47492
#        64825
#        78589
#        95470
#        104288
#        126481
#        148868
#        163462
#        181148
#
# Disc length: 2654 seconds
#
# Revision: 0
# Processed by: cddbd v1.5.2PL0 Copyright (c) Steve Scherf et al.
# Submitted via: ExactAudioCopy v1.0b3
#
DISCID=a60a5c0c
DTITLE=Joey Green - Whatever Lady?!
DYEAR=2009
DGENRE=Red Dirt
TTITLE0=Natchitoches Blues
TTITLE1=Heavy
TTITLE2=Until You Go
TTITLE3=Save Me From Myself
TTITLE4=Roomates
TTITLE5=Alone Tonight
TTITLE6=Disease
TTITLE7=If I Was Dead
TTITLE8=Lonely One
TTITLE9=The Devil
TTITLE10=Movie Screen
TTITLE11=Bend Until It Breaks
EXTD=
EXTT0=
EXTT1=
EXTT2=
EXTT3=
EXTT4=
EXTT5=
EXTT6=
EXTT7=
EXTT8=
EXTT9=
EXTT10=
EXTT11=
PLAYORDER=
